<svg width="389" height="539" viewBox="0 0 389 539" fill="none" xmlns="http://www.w3.org/2000/svg">
<g filter="url(#filter0_d_3659_5440)">
<path d="M194.489 10.2C92.7094 10.2 10.2001 86.3107 10.2 180.198V421.774L125.572 528.2H264.427L378.777 422.717V180.198C378.777 86.3108 296.268 10.2002 194.489 10.2ZM194.495 33.6179C284.096 33.6179 357.034 103.177 357.034 189.347V407.528L355.805 408.705L257.422 502.862L256.266 503.969H133.602L132.447 502.862L33.1863 407.864L31.9568 406.687V189.347C31.957 103.178 104.894 33.6181 194.495 33.6179ZM185.045 360.983L185.429 361.802V401.372L185.045 400.803V495.542H202.616V337.583C201.462 339.382 200.246 341.206 198.964 343.052L198.243 344.084L198.07 344.314C196.229 346.61 192.661 346.52 190.943 344.09L190.939 344.084C190.211 343.05 189.503 342.022 188.815 341.003C187.52 339.722 186.264 338.45 185.045 337.188V360.983ZM348.228 307.374C331.878 318.264 317.182 327.94 303.78 336.403C298.264 344.609 291.26 352.36 282.336 358.587C275.719 363.203 268.189 365.676 260.981 367.381C257.363 368.236 253.69 368.927 250.172 369.573C246.597 370.23 243.208 370.836 239.884 371.552C239.026 371.737 238.182 371.927 237.353 372.125C233.194 373.724 229.135 375.105 225.149 376.271C219.447 379.09 214.953 383.141 211.824 389.551L211.021 389.365V495.174H224.28V453.843C224.28 449.939 226.526 446.672 228.953 444.117C231.437 441.503 234.698 439.033 237.8 436.761C241.009 434.411 244.059 432.262 246.572 430.085C249.146 427.855 250.612 426.038 251.131 424.568C251.562 423.344 251.629 421.35 251.462 419.293C251.393 418.444 251.292 417.678 251.202 417.089C245.773 415.473 241.785 410.51 241.636 404.592L241.631 404.246L241.636 403.9C241.819 396.661 247.745 390.849 255.028 390.848L255.374 390.853C262.613 391.036 268.426 396.962 268.427 404.246C268.427 410.461 264.194 415.687 258.455 417.201C258.511 417.666 258.566 418.173 258.61 418.711C258.791 420.938 258.858 424.219 257.894 426.953C256.719 430.287 254.007 433.132 251.267 435.506C248.467 437.932 245.067 440.328 242.038 442.547C238.902 444.844 236.136 446.969 234.153 449.056C232.114 451.202 231.452 452.745 231.452 453.843V495.174H249.202V464.736C249.202 457.58 253.394 451.827 258.613 447.12C263.844 442.403 270.734 438.181 277.243 434.196C283.908 430.116 290.186 426.278 294.836 422.156C299.508 418.014 301.856 414.174 301.856 410.228V393.327C301.856 392.844 301.953 392.384 302.126 391.964C296.145 390.725 291.622 385.501 291.463 379.191L291.458 378.845L291.463 378.5C291.646 371.26 297.572 365.448 304.855 365.448L305.201 365.453C312.441 365.636 318.254 371.562 318.254 378.845C318.254 384.931 314.195 390.068 308.638 391.701C308.886 392.189 309.027 392.741 309.027 393.327V410.228C309.027 417.268 304.794 422.913 299.594 427.523C294.371 432.153 287.485 436.335 280.987 440.312C274.333 444.386 268.059 448.259 263.417 452.446C258.764 456.642 256.374 460.603 256.374 464.736V491.593L348.228 403.572V307.374ZM40.5359 403.572L132.61 491.229V464.736C132.61 460.603 130.22 456.642 125.567 452.446C120.925 448.26 114.651 444.386 107.997 440.312C101.499 436.335 94.6129 432.153 89.3904 427.523C84.19 422.913 79.9568 417.268 79.9568 410.228V393.327C79.9568 393.086 79.9817 392.85 80.0272 392.622C74.6213 390.992 70.656 386.04 70.5067 380.138L70.5018 379.793L70.5067 379.447C70.6902 372.208 76.6158 366.396 83.8992 366.395L84.2449 366.4C91.4846 366.583 97.2975 372.509 97.2977 379.793C97.2977 386.092 92.9492 391.376 87.0906 392.807C87.1153 392.977 87.1277 393.15 87.1277 393.327V410.228C87.1277 414.174 89.4766 418.015 94.1483 422.156C98.7981 426.278 105.076 430.116 111.741 434.196C118.25 438.18 125.14 442.403 130.371 447.12C135.59 451.827 139.782 457.58 139.782 464.736V495.174H155.645V453.843C155.645 452.791 154.983 451.262 152.859 449.1C150.803 447.008 147.936 444.879 144.69 442.581C141.554 440.36 138.042 437.967 135.149 435.545C132.326 433.18 129.518 430.336 128.297 426.989C127.292 424.234 127.363 420.931 127.551 418.7C127.602 418.088 127.669 417.514 127.736 416.999C122.455 415.296 118.606 410.404 118.459 404.592L118.454 404.246L118.459 403.9C118.642 396.661 124.568 390.849 131.851 390.848L132.197 390.853C139.437 391.037 145.25 396.962 145.25 404.246C145.25 410.583 140.849 415.892 134.938 417.286C134.853 417.846 134.761 418.541 134.697 419.302C134.524 421.356 134.595 423.328 135.034 424.531C135.566 425.988 137.08 427.808 139.754 430.047C142.357 432.227 145.518 434.379 148.835 436.727C152.042 438.998 155.41 441.464 157.974 444.073C160.471 446.613 162.817 449.893 162.817 453.843V495.174H178.31V390.83L176.684 388.423C170.043 378.587 160.339 374.739 148.229 371.889C144.951 371.118 141.638 370.449 138.146 369.722C134.709 369.007 131.134 368.242 127.603 367.318C120.555 365.473 113.249 362.888 106.695 358.315C97.934 352.202 91.009 344.634 85.5164 336.61C71.9781 327.993 57.1103 318.112 40.5359 306.963V403.572ZM255.028 398.02C251.59 398.02 248.803 400.808 248.803 404.246C248.803 407.577 251.418 410.297 254.708 410.464L255.028 410.472C258.359 410.472 261.079 407.856 261.246 404.566L261.255 404.246C261.254 400.808 258.466 398.02 255.028 398.02ZM131.851 398.02C128.413 398.02 125.626 400.808 125.626 404.246C125.626 407.577 128.242 410.297 131.531 410.464L131.851 410.472C135.182 410.472 137.903 407.856 138.069 404.566L138.078 404.246C138.078 400.808 135.29 398.02 131.851 398.02ZM83.8992 373.567C80.4611 373.567 77.6739 376.355 77.6736 379.793C77.6736 383.124 80.2895 385.844 83.5789 386.01L83.8992 386.019C87.2304 386.019 89.9505 383.403 90.117 380.113L90.1258 379.793C90.1256 376.354 87.3376 373.567 83.8992 373.567ZM304.855 372.62C301.417 372.62 298.63 375.407 298.63 378.845C298.63 382.176 301.246 384.896 304.535 385.063L304.855 385.072C308.186 385.072 310.906 382.455 311.073 379.166L311.082 378.845C311.082 375.407 308.294 372.62 304.855 372.62ZM311.072 296.463C308.817 296.828 306.156 297.158 303.261 297.523C299.804 297.96 295.93 298.46 291.803 299.148C292.426 303.579 292.873 308.277 293.107 313.259C293.292 317.196 289.439 320.064 285.734 318.805C276.432 315.646 268.333 312.17 261.259 308.517C258.608 309.875 256.022 311.402 253.543 313.132C242.885 320.568 231.028 334.383 221.862 348.862C218.118 354.778 214.848 360.769 212.308 366.427V369.552C228.662 353.378 242.76 339.581 269.122 327.097C270.912 326.25 273.05 327.014 273.897 328.803C274.745 330.593 273.981 332.732 272.191 333.58C252.151 343.07 239.61 353.25 227.121 365.123C230.618 363.908 234.237 362.988 237.87 362.205C241.373 361.45 244.942 360.812 248.443 360.169C251.96 359.523 255.421 358.868 258.78 358.074C265.511 356.482 271.689 354.355 276.863 350.745C296.85 336.798 306.324 313.707 311.072 296.463ZM77.7068 296.014C82.5137 313.299 92.0766 336.454 112.168 350.473C117.394 354.12 123.466 356.351 130.025 358.068C133.301 358.926 136.669 359.649 140.094 360.361C143.504 361.071 146.985 361.773 150.419 362.581C155.461 363.767 160.505 365.2 165.302 367.303C151.528 353.647 138.726 342.233 116.782 331.674C114.998 330.815 114.248 328.672 115.106 326.887C115.965 325.103 118.108 324.352 119.892 325.211C145.872 337.712 159.753 351.53 175.866 367.723V363.942C173.488 358.983 170.592 353.821 167.347 348.716C158.115 334.189 146.183 320.323 135.469 312.846C132.959 311.095 130.343 309.549 127.662 308.176C120.593 311.824 112.503 315.295 103.211 318.451C99.5102 319.708 95.654 316.846 95.8367 312.907V312.904L95.9012 311.637C96.1489 307.113 96.5744 302.828 97.1473 298.766C92.9642 298.058 89.0396 297.542 85.5418 297.094C82.6369 296.721 79.9689 296.385 77.7068 296.014ZM222.757 273.873C222.848 278.132 222.664 282.859 221.989 288.019C220.525 299.207 216.776 312.321 208.725 327.241V352.274C210.301 349.425 211.995 346.57 213.782 343.747C223.305 328.703 235.97 313.733 248.07 305.29C249.821 304.068 251.607 302.941 253.416 301.898C244.53 296.364 237.585 290.574 232.072 284.927C228.349 281.113 225.297 277.377 222.757 273.873ZM166.44 273.663C163.92 277.129 160.898 280.821 157.222 284.588C151.674 290.273 144.674 296.102 135.704 301.671C137.475 302.698 139.225 303.807 140.941 305.005C153.091 313.482 165.828 328.498 175.418 343.587C176.636 345.503 177.811 347.434 178.935 349.367V324.344C171.849 310.465 168.489 298.206 167.152 287.67C166.504 282.563 166.339 277.881 166.44 273.663ZM176.264 260.04C175.254 266.684 174.172 275.468 175.585 286.6C177.201 299.338 182.126 315.316 194.592 334.34C206.955 315.472 211.9 299.602 213.56 286.917C215.018 275.782 213.975 266.968 212.975 260.292C207.704 261.48 202.227 262.155 196.607 262.254L195.162 262.266C188.647 262.266 182.316 261.493 176.264 260.04ZM349.065 239.435C348.579 240.751 347.479 241.863 345.932 242.28C318.915 249.561 298.168 249.308 282.388 246.356C277.383 245.42 272.894 244.211 268.892 242.905C271.52 246.226 274.207 250.051 276.77 254.467C282.049 263.559 286.775 275.074 289.598 289.825C294.185 289.044 298.436 288.495 302.063 288.037C306.835 287.434 310.048 287.032 312.106 286.532H312.107C314.59 285.929 317.244 286.613 319.12 288.387L319.121 288.388C321.017 290.183 321.877 292.884 321.213 295.511L320.769 297.23C318.719 305.002 315.661 314.418 310.97 323.931C321.634 317.052 333.114 309.467 345.579 301.162L349.065 298.839V239.435ZM39.9246 298.548L43.2078 300.758C55.7821 309.22 67.3511 316.937 78.0867 323.926C72.898 313.551 69.6553 303.27 67.5584 295.074V295.073C66.8854 292.441 67.7456 289.734 69.6414 287.936L69.6434 287.934L69.8221 287.77C71.6862 286.116 74.2582 285.487 76.6707 286.077L76.6727 286.078C78.7424 286.585 81.9709 286.995 86.7586 287.609C90.5096 288.09 94.9232 288.67 99.6844 289.502C102.508 274.744 107.236 263.225 112.517 254.131C115.145 249.605 117.902 245.7 120.593 242.322C116.418 243.716 111.698 245.012 106.401 246.003C90.6218 248.954 69.8757 249.207 42.8602 241.927C41.4952 241.559 40.4789 240.649 39.9246 239.536V298.548ZM252.208 237.142C248.385 241.36 243.999 245.226 239.065 248.635C233.818 252.262 228.246 255.17 222.481 257.378C225.772 263.324 230.337 271.063 238.386 279.308C247.559 288.706 261.381 298.857 283.115 307.268C282.759 303.328 282.26 299.612 281.641 296.106L280.827 291.487L281.094 291.434C278.441 277.433 274.006 266.717 269.186 258.415C263.463 248.557 257.148 241.99 252.208 237.142ZM137.081 236.808C132.141 241.655 125.825 248.221 120.1 258.079C113.601 269.271 107.801 284.852 106.126 306.959C127.893 298.541 141.728 288.378 150.908 278.97C158.956 270.723 163.52 262.984 166.809 257.038C161.04 254.829 155.463 251.92 150.212 248.291C145.282 244.884 140.9 241.021 137.081 236.808ZM192.435 128.551C185.931 128.665 179.654 129.637 173.722 131.347C173.543 131.399 173.361 131.437 173.179 131.466C166.797 133.526 160.622 136.522 154.872 140.496L153.827 141.232C148.65 144.951 144.185 149.235 140.453 153.924C140.364 154.036 140.269 154.142 140.169 154.244C136.712 158.999 133.869 164.272 131.79 169.998L131.383 171.155C129.149 177.695 128.065 184.323 128.021 190.844C128.02 191.032 128.005 191.219 127.979 191.404C128.122 197.602 129.206 203.887 131.326 210.094C133.559 216.631 136.774 222.596 140.765 227.894C140.778 227.911 140.79 227.927 140.803 227.944C140.886 228.032 140.966 228.123 141.042 228.218C144.758 232.866 149.196 237.114 154.335 240.804L155.372 241.536C161.115 245.505 167.281 248.498 173.654 250.558C173.856 250.589 174.057 250.634 174.255 250.694C180.841 252.688 187.864 253.766 195.162 253.766C202.09 253.766 208.771 252.794 215.065 250.99C215.305 250.921 215.55 250.874 215.796 250.847C222.108 248.789 228.215 245.814 233.906 241.881L234.944 241.149C239.659 237.763 243.782 233.908 247.301 229.706C247.45 229.186 247.691 228.689 248.024 228.247C252.018 222.947 255.236 216.979 257.47 210.439C259.353 204.924 260.418 199.348 260.732 193.825C260.328 193.146 260.097 192.371 260.092 191.581C260.048 185.059 258.965 178.431 256.731 171.891C254.645 165.783 251.698 160.175 248.063 155.142C247.888 154.981 247.724 154.807 247.578 154.618C243.498 149.353 238.507 144.581 232.636 140.523C227.047 136.661 221.057 133.721 214.866 131.667C214.775 131.646 214.685 131.622 214.596 131.595C208.024 129.612 201.018 128.539 193.739 128.539L192.435 128.551ZM269.118 196.433C268.659 201.496 267.643 206.585 266.027 211.629L265.591 212.949C263.6 218.775 260.916 224.208 257.656 229.189C264.001 232.165 272.521 235.895 284.183 238.077C297.418 240.552 314.835 241.039 337.517 235.75C322.56 218.928 308.283 209.598 296.113 204.179C285.337 199.381 276.121 197.593 269.118 196.433ZM119.677 196.08C112.673 197.24 103.457 199.027 92.6815 203.825C80.5117 209.244 66.2342 218.574 51.2762 235.396C73.9562 240.685 91.3713 240.2 104.605 237.724C116.269 235.543 124.789 231.812 131.135 228.836C127.877 223.856 125.194 218.427 123.205 212.604L122.767 211.284C121.151 206.237 120.135 201.145 119.677 196.08ZM344.237 152.58C328.191 170.806 312.625 181.051 299.084 187.021C294.652 188.975 290.448 190.463 286.548 191.622C290.653 192.827 295.1 194.396 299.805 196.491C314.092 202.853 330.61 213.98 347.555 234.202L348.362 235.172L348.543 235.408C348.764 235.715 348.937 236.039 349.065 236.373V189.347C349.065 176.66 347.389 164.34 344.237 152.58ZM44.7029 152.774C41.5842 164.476 39.9247 176.73 39.9246 189.347V235.586C40.0188 235.404 40.1261 235.226 40.2498 235.054L40.4315 234.818L41.2391 233.848C58.1841 213.626 74.7027 202.499 88.991 196.136C93.8158 193.988 98.3712 192.394 102.563 191.177C98.3855 189.978 93.8424 188.408 89.0301 186.286C75.7211 180.418 60.4573 170.42 44.7029 152.774ZM337.138 147.615C314.639 142.368 297.321 142.803 284.127 145.223C272.444 147.367 263.884 151.074 257.502 154.051C260.258 158.402 262.58 163.086 264.389 168.069L264.852 169.381C266.843 175.208 268.026 181.105 268.467 186.958C275.439 185.818 284.637 184.075 295.422 179.32C307.66 173.924 322.053 164.579 337.138 147.615ZM103.986 144.488C90.7917 142.068 73.4752 141.633 50.9774 146.88C66.0612 163.843 80.4543 173.187 92.6922 178.583C103.476 183.338 112.674 185.082 119.646 186.221C120.087 180.368 121.271 174.472 123.262 168.645C125.131 163.171 127.615 158.046 130.612 153.315C124.23 150.338 115.669 146.631 103.986 144.488ZM282.573 75.9304C261.126 84.2238 247.38 94.2112 238.199 103.498C230.106 111.683 225.46 119.409 222.127 125.386C227.134 127.376 231.991 129.896 236.608 132.964L237.796 133.768C243.031 137.386 247.649 141.519 251.632 146.039C256.57 141.205 262.871 134.651 268.584 124.824C275.089 113.632 280.896 98.0477 282.573 75.9304ZM105.697 75.3562C107.363 97.3309 113.106 112.856 119.557 124.033C125.244 133.883 131.533 140.473 136.479 145.335C140.323 141.079 144.739 137.178 149.712 133.741C154.942 130.126 160.495 127.227 166.239 125.022C162.932 119.061 158.328 111.333 150.267 103.127C141.088 93.781 127.298 83.7098 105.697 75.3562ZM291.392 74.2156C289.859 98.6224 283.553 116.067 276.166 128.775C273.532 133.306 270.768 137.215 268.071 140.594C272.275 139.204 277.027 137.918 282.361 136.939C297.017 134.25 315.925 133.897 340.114 139.699C330.439 113.776 313.404 91.1719 291.392 74.2156ZM96.95 74.7214C75.5444 91.3934 58.9067 113.429 49.2645 138.665C72.8487 133.175 91.3519 133.562 105.752 136.204C111.095 137.184 115.855 138.473 120.064 139.866C117.363 136.463 114.597 132.527 111.963 127.964C104.747 115.463 98.5885 98.4121 96.95 74.7214ZM194.219 48.2048C181.921 66.9719 176.963 82.7735 175.277 95.4236C173.796 106.535 174.808 115.351 175.804 122.041C181.563 120.733 187.569 120.039 193.739 120.039C200.234 120.039 206.548 120.806 212.583 122.251C213.59 115.588 214.635 106.794 213.191 95.6853C211.542 82.9911 206.601 67.1011 194.219 48.2048ZM200.09 41.6824C214.024 62.3766 219.738 80.101 221.621 94.5896C222.309 99.8838 222.478 104.722 222.365 109.065C224.966 105.506 228.097 101.712 231.925 97.8406C242.374 87.2709 257.872 76.2367 281.741 67.3562C258.364 52.0447 230.352 42.7103 200.09 41.6824ZM188.335 41.7019C158.418 42.8214 130.717 52.061 107.547 67.1619C131.006 76.0389 146.261 87.0022 156.562 97.49C160.365 101.362 163.475 105.155 166.055 108.71C165.961 104.38 166.15 99.5648 166.851 94.3005C168.775 79.8695 174.502 62.2501 188.335 41.7019Z" fill="url(#paint0_linear_3659_5440)"/>
</g>
<defs>
<filter id="filter0_d_3659_5440" x="1.23978e-05" y="-4.86374e-05" width="388.977" height="538.4" filterUnits="userSpaceOnUse" color-interpolation-filters="sRGB">
<feFlood flood-opacity="0" result="BackgroundImageFix"/>
<feColorMatrix in="SourceAlpha" type="matrix" values="0 0 0 0 0 0 0 0 0 0 0 0 0 0 0 0 0 0 127 0" result="hardAlpha"/>
<feOffset/>
<feGaussianBlur stdDeviation="5.1"/>
<feComposite in2="hardAlpha" operator="out"/>
<feColorMatrix type="matrix" values="0 0 0 0 0.801326 0 0 0 0 0.963576 0 0 0 0 1 0 0 0 0.19 0"/>
<feBlend mode="normal" in2="BackgroundImageFix" result="effect1_dropShadow_3659_5440"/>
<feBlend mode="normal" in="SourceGraphic" in2="effect1_dropShadow_3659_5440" result="shape"/>
</filter>
<linearGradient id="paint0_linear_3659_5440" x1="194.2" y1="-67.3001" x2="194.2" y2="712.7" gradientUnits="userSpaceOnUse">
<stop stop-color="#F7F7F7"/>
<stop offset="0.459406" stop-color="#AAEDFF"/>
<stop offset="0.92339" stop-color="#8CFFEC"/>
</linearGradient>
</defs>
</svg>
